<svg width="2285" height="1642" viewBox="0 0 2285 1642" fill="none" xmlns="http://www.w3.org/2000/svg">
<g clip-path="url(#clip0_208_128)">
<path d="M1676.47 0.949219H0.714844V1074.61H1676.47V0.949219Z" fill="#E6E6E6"/>
<path d="M1628.55 135.612H48.6333V1011.09H1628.55V135.612Z" fill="white"/>
<path d="M1675.75 0H0V71.2201H1675.75V0Z" fill="#10B981"/>
<path d="M52.906 49.6146C60.1939 49.6146 66.102 43.7041 66.102 36.4132C66.102 29.1223 60.1939 23.2119 52.906 23.2119C45.618 23.2119 39.71 29.1223 39.71 36.4132C39.71 43.7041 45.618 49.6146 52.906 49.6146Z" fill="white"/>
<path d="M102.99 49.6146C110.278 49.6146 116.186 43.7041 116.186 36.4132C116.186 29.1223 110.278 23.2119 102.99 23.2119C95.702 23.2119 89.7939 29.1223 89.7939 36.4132C89.7939 43.7041 95.702 49.6146 102.99 49.6146Z" fill="white"/>
<path d="M153.073 49.6146C160.361 49.6146 166.269 43.7041 166.269 36.4132C166.269 29.1223 160.361 23.2119 153.073 23.2119C145.785 23.2119 139.877 29.1223 139.877 36.4132C139.877 43.7041 145.785 49.6146 153.073 49.6146Z" fill="white"/>
<path d="M552.031 207.622H243.023V543.004H552.031V207.622Z" fill="#E6E6E6"/>
<path d="M993.093 207.622H684.085V543.004H993.093V207.622Z" fill="#E6E6E6"/>
<path d="M1434.15 207.622H1125.14V543.004H1434.15V207.622Z" fill="#E6E6E6"/>
<path d="M552.031 603.709H243.023V939.091H552.031V603.709Z" fill="#E6E6E6"/>
<path d="M993.093 603.709H684.085V939.091H993.093V603.709Z" fill="#E6E6E6"/>
<path d="M1434.15 603.709H1125.14V939.091H1434.15V603.709Z" fill="#E6E6E6"/>
<path d="M758.772 689.904L815.231 667.573L821.797 779.224C821.797 779.224 833.613 813.375 829.675 826.512C829.675 826.512 832.3 848.842 825.735 850.156C819.169 851.469 800.783 854.098 799.483 852.782C798.183 851.466 798.17 847.527 798.17 847.527C798.17 847.527 785.039 856.721 783.727 867.229C783.727 867.229 728.58 884.304 727.268 868.542C725.955 852.779 754.84 839.643 754.84 839.643L777.161 805.492L758.772 689.904Z" fill="white"/>
<path d="M878.261 689.904L934.713 667.573L941.278 779.224C941.278 779.224 953.094 813.375 949.156 826.512C949.156 826.512 951.782 848.842 945.216 850.156C938.651 851.469 920.264 854.098 918.964 852.782C917.665 851.466 917.652 847.527 917.652 847.527C917.652 847.527 904.521 856.721 903.208 867.229C903.208 867.229 848.062 884.304 846.749 868.542C845.436 852.779 874.321 839.643 874.321 839.643L896.643 805.492L878.261 689.904Z" fill="white"/>
<path d="M883.777 258.748C883.777 258.748 871.756 292.354 885.685 307.508L874.071 347.429C874.071 347.429 915.331 471.257 903.544 488.553C903.544 488.553 859.534 510.567 771.505 480.69L807.262 341.924L802.155 283.352L809.227 255.834L824.944 254.273C824.944 254.273 815.515 289.652 832.804 295.157C850.094 300.661 866.96 255.158 866.96 255.158L883.777 258.748Z" fill="#3F3D56"/>
<path d="M328.59 475.677L343.762 481.886L416.169 386.684L438.925 498.442L454.097 495.683C463.828 399.332 471.771 301.056 462.027 254.575L405.825 252.159L380.311 333.575L367.898 388.764L328.59 475.677Z" fill="white"/>
<path d="M1249.37 253.812C1249.37 253.812 1228.66 282.607 1229.67 294.228C1230.68 305.848 1243.81 495.295 1243.81 495.295L1274.62 496.811L1265.52 360.409L1273.09 323.53L1291.78 495.295L1329.66 496.307L1295.82 273.517L1289.26 253.815L1249.37 253.812Z" fill="white"/>
<path d="M1366.39 717.708C1360.89 711.109 1351.44 707.541 1342.37 705.612C1342.62 704.788 1314.77 699.028 1314.29 700.214L1303.79 691.844L1271.52 708.607L1253.38 696.256L1244.96 699.247C1245.3 697.759 1218.81 702.351 1218.81 702.351C1213.75 702.533 1207.28 702.85 1200.05 703.407C1174.71 705.357 1172.76 771.013 1172.76 771.013C1184.41 766.241 1196.85 763.638 1209.44 763.329L1216.29 841.856C1251.51 838.834 1288.46 842.35 1326.75 850.957L1344.71 789.227L1386.53 772.958C1386.53 772.958 1379.38 733.307 1366.39 717.708Z" fill="#3F3D56"/>
<path d="M468.998 680.315C464.468 674.878 456.683 671.937 449.205 670.348C449.429 669.667 426.465 664.924 426.073 665.902L417.417 659.006L390.83 672.818L375.888 662.644L368.948 665.109C369.231 663.884 347.401 667.665 347.401 667.665C343.242 667.815 337.903 668.075 331.943 668.536C311.064 670.143 309.458 724.235 309.458 724.235C319.065 720.303 329.308 718.158 339.684 717.903L345.327 876.293C374.352 873.802 404.793 876.702 436.337 883.792L451.131 739.246L485.589 725.842C485.589 725.842 479.704 693.173 468.998 680.315Z" fill="white"/>
<path d="M1947.95 722.475H2096.11V643.168C2096.11 623.514 2088.3 604.664 2074.41 590.767C2060.52 576.869 2041.67 569.062 2022.03 569.062C2002.38 569.062 1983.54 576.869 1969.65 590.767C1955.76 604.664 1947.95 623.514 1947.95 643.168V722.475Z" fill="#2F2E41"/>
<path d="M1881.82 1604.84H1849.95L1834.79 1481.87H1881.82L1881.82 1604.84Z" fill="#FFB6B6"/>
<path d="M1889.94 1594.44H1827.19C1816.58 1594.44 1806.41 1598.65 1798.91 1606.15C1791.41 1613.66 1787.2 1623.83 1787.2 1634.44V1635.74H1889.94V1594.44Z" fill="#2F2E41"/>
<path d="M2262.74 1562.3L2234.99 1577.97L2161.36 1478.36L2202.31 1455.23L2262.74 1562.3Z" fill="#FFB6B6"/>
<path d="M2264.7 1549.24L2210.05 1580.09C2200.81 1585.31 2194.03 1593.99 2191.18 1604.21C2188.34 1614.43 2189.67 1625.36 2194.89 1634.6L2195.53 1635.73L2285 1585.2L2264.7 1549.24Z" fill="#2F2E41"/>
<path d="M2059.08 1051.85L2061.54 1064.15C2061.54 1064.15 2068.91 1071.53 2065.23 1075.22C2061.54 1078.91 2062.77 1096.13 2062.77 1096.13C2064.83 1127.53 2105.84 1303.98 2113.18 1338.44C2113.18 1338.44 2169.74 1375.34 2214 1447.91C2258.26 1520.48 2259.48 1538.93 2259.48 1538.93L2210.31 1559.85L2087.37 1411.02C2087.37 1411.02 2052.95 1390.1 2040.65 1371.66C2028.35 1353.21 1952.11 1162.55 1952.11 1162.55L1909.07 1361.81C1909.07 1361.81 1911.53 1434.38 1900.46 1481.13C1893.66 1510.62 1889.54 1540.68 1888.17 1570.92L1830.38 1564.77C1830.38 1564.77 1834.07 1390.1 1840.22 1371.65C1840.22 1371.65 1814.4 1158.86 1866.04 1073.99L1907.65 962.995L1948.41 947.3L2059.08 1051.85Z" fill="#2F2E41"/>
<path d="M2022.79 588.448C1945.21 589.774 1945.23 705.216 2022.79 706.53C2100.36 705.203 2100.35 589.761 2022.79 588.448Z" fill="#FFB8B8"/>
<path d="M1963.09 644.426H1976.27L1979.86 635.444L1978.07 644.426H2050.18L2047.84 625.634L2065.37 644.426H2082.85V634.243C2082.86 626.376 2081.32 618.586 2078.31 611.316C2075.31 604.046 2070.9 597.439 2065.35 591.872C2059.79 586.306 2053.19 581.889 2045.93 578.873C2038.67 575.857 2030.88 574.302 2023.02 574.297C2015.15 574.291 2007.37 575.835 2000.1 578.841C1992.83 581.846 1986.23 586.254 1980.66 591.812C1975.1 597.371 1970.68 603.972 1967.67 611.237C1964.65 618.503 1963.1 626.292 1963.09 634.158V634.243L1963.09 644.426Z" fill="#2F2E41"/>
<path d="M1942.8 741.004L2089.39 742.192L2058.42 1056.6C2058.42 1056.6 1886.98 1047.55 1886.87 995.202L1902.93 948.681L1942.8 741.004Z" fill="#3F3D56"/>
<path d="M2095.69 1087C2093.44 1084.24 2091.82 1081.01 2090.94 1077.56C2090.07 1074.1 2089.96 1070.5 2090.63 1067C2091.3 1063.5 2092.73 1060.19 2094.81 1057.3C2096.9 1054.41 2099.59 1052.01 2102.71 1050.28L2096.34 994.926L2129.02 982.848L2136.91 1061.14C2139.46 1066.57 2139.94 1072.73 2138.25 1078.48C2136.57 1084.23 2132.83 1089.17 2127.76 1092.35C2122.68 1095.53 2116.62 1096.75 2110.71 1095.76C2104.8 1094.77 2099.46 1091.66 2095.69 1087Z" fill="#FFB6B6"/>
<path d="M2070.11 769.278L2089.4 742.306C2089.4 742.306 2102.6 739.375 2118.2 757.577C2133.79 775.778 2142.89 1003.3 2142.89 1003.3L2085.71 1016.3L2051.92 855.085L2070.11 769.278Z" fill="#3F3D56"/>
<path d="M1747 1016.01L1751.25 1218.14L1882.05 1287.29L2120.26 1244.74L2126.11 1034.63L1975.1 981.431L1747 1016.01Z" fill="white"/>
<path d="M1881.71 1289.48L1749.19 1219.41L1744.87 1014.22L1975.31 979.287L1975.8 979.46L2128.24 1033.16L2122.3 1246.5L1881.71 1289.48ZM1753.31 1216.87L1882.39 1285.11L2118.22 1242.98L2123.98 1036.09L1974.9 983.575L1749.12 1017.8L1753.31 1216.87Z" fill="#CACACA"/>
<path d="M1879.13 1070.81L1878.62 1070.61L1746.22 1017.95L1747.77 1014.07L1879.65 1066.52L2125.83 1032.56L2126.4 1036.7L1879.13 1070.81Z" fill="#CACACA"/>
<path d="M1881.48 1068.64L1877.31 1068.69L1879.96 1287.32L1884.14 1287.27L1881.48 1068.64Z" fill="#CACACA"/>
<path d="M1862.4 1060.35L1814.68 1040.99L2044.43 1004.37L2092.16 1023.72L1862.4 1060.35Z" fill="#CACACA"/>
<path d="M1747.82 1074.64L1746.17 1078.48L1801.52 1102.32L1803.17 1098.49L1747.82 1074.64Z" fill="#CACACA"/>
<path d="M1772.89 1143.6L1771.23 1147.44L1826.59 1171.28L1828.24 1167.44L1772.89 1143.6Z" fill="#10B981"/>
<path d="M1019.23 1296.83L1023.48 1498.97L1154.28 1568.12L1392.49 1525.56L1398.34 1315.45L1247.33 1262.25L1019.23 1296.83Z" fill="white"/>
<path d="M1153.94 1570.3L1021.42 1500.24L1017.1 1295.04L1247.54 1260.11L1248.03 1260.28L1400.47 1313.98L1394.54 1527.32L1153.94 1570.3ZM1025.54 1497.69L1154.62 1565.93L1390.45 1523.8L1396.21 1316.91L1247.13 1264.4L1021.35 1298.62L1025.54 1497.69Z" fill="#CACACA"/>
<path d="M1151.36 1351.64L1150.85 1351.43L1018.46 1298.77L1020 1294.89L1151.88 1347.35L1398.06 1313.38L1398.63 1317.52L1151.36 1351.64Z" fill="#CACACA"/>
<path d="M1153.71 1349.47L1149.54 1349.52L1152.19 1568.14L1156.37 1568.09L1153.71 1349.47Z" fill="#CACACA"/>
<path d="M1123.07 1336.42L1086.91 1321.82L1316.66 1285.19L1352.82 1299.79L1123.07 1336.42Z" fill="#CACACA"/>
<path d="M1020.05 1355.47L1018.4 1359.31L1073.75 1383.15L1075.41 1379.31L1020.05 1355.47Z" fill="#CACACA"/>
<path d="M1045.12 1424.43L1043.47 1428.26L1098.82 1452.11L1100.47 1448.27L1045.12 1424.43Z" fill="#10B981"/>
<path d="M1246.47 1324.55L1251.41 1559.19L1403.25 1639.47L1679.77 1590.07L1686.56 1346.16L1511.26 1284.41L1246.47 1324.55Z" fill="#10B981"/>
<path d="M1402.85 1642L1249.01 1560.67L1244 1322.47L1511.5 1281.92L1512.07 1282.12L1689.03 1344.46L1682.14 1592.11L1402.85 1642ZM1253.8 1557.71L1403.64 1636.93L1677.4 1588.03L1684.09 1347.86L1511.03 1286.9L1248.94 1326.62L1253.8 1557.71Z" fill="#3F3D56"/>
<path d="M1399.86 1388.17L1399.27 1387.93L1245.57 1326.8L1247.36 1322.29L1400.46 1383.19L1686.23 1343.76L1686.89 1348.56L1399.86 1388.17Z" fill="#3F3D56"/>
<path d="M1402.59 1385.65L1397.74 1385.71L1400.82 1639.49L1405.67 1639.44L1402.59 1385.65Z" fill="#3F3D56"/>
<path d="M1369.47 1370.61L1325.03 1353.55L1591.74 1311.04L1636.18 1328.09L1369.47 1370.61Z" fill="#3F3D56"/>
<path d="M1247.43 1392.61L1245.51 1397.07L1309.76 1424.75L1311.68 1420.29L1247.43 1392.61Z" fill="#3F3D56"/>
<path d="M1276.52 1472.66L1274.61 1477.12L1338.86 1504.8L1340.78 1500.34L1276.52 1472.66Z" fill="white"/>
<path d="M1821.16 1049.43C1824.38 1047.92 1827.24 1045.71 1829.52 1042.98C1831.8 1040.24 1833.46 1037.03 1834.37 1033.59C1835.28 1030.14 1835.42 1026.54 1834.79 1023.03C1834.16 1019.53 1832.76 1016.2 1830.71 1013.29L1860.39 966.146L1836.16 941.111L1795.17 1008.27C1790.51 1012.05 1787.4 1017.41 1786.43 1023.33C1785.46 1029.25 1786.69 1035.33 1789.89 1040.4C1793.1 1045.47 1798.05 1049.19 1803.81 1050.86C1809.57 1052.52 1815.75 1052.02 1821.16 1049.43V1049.43Z" fill="#FFB6B6"/>
<path d="M1965.32 753.396L1944.05 739.376C1944.05 739.376 1927.64 743.058 1910.18 776.648C1892.73 810.237 1822.33 960.41 1822.33 960.41L1851.27 989.793L1928.46 871.979L1965.32 753.396Z" fill="#3F3D56"/>
</g>
<defs>
<clipPath id="clip0_208_128">
<rect width="2285" height="1642" fill="white"/>
</clipPath>
</defs>
</svg>
